<svg width="25" height="24" viewBox="0 0 25 24" fill="none" xmlns="http://www.w3.org/2000/svg">
<g clip-path="url(#clip0_66_53475)">
<path d="M12.1952 0C9.82182 0 7.50174 0.703788 5.52835 2.02236C3.55496 3.34094 2.01689 5.21509 1.10864 7.4078C0.20039 9.60051 -0.0372502 12.0133 0.425772 14.3411C0.888795 16.6689 2.03168 18.8071 3.70991 20.4853C5.38814 22.1635 7.52634 23.3064 9.85411 23.7694C12.1819 24.2324 14.5947 23.9948 16.7874 23.0866C18.9801 22.1783 20.8543 20.6402 22.1728 18.6668C23.4914 16.6935 24.1952 14.3734 24.1952 12C24.1952 8.8174 22.9309 5.76515 20.6805 3.51472C18.43 1.26428 15.3778 0 12.1952 0ZM19.3822 15.875C19.2962 16.075 18.9072 16.363 17.5482 16.575C17.4372 16.592 17.3942 16.737 17.3272 17.04C17.3032 17.15 17.2782 17.259 17.2452 17.373C17.2363 17.4168 17.2116 17.4557 17.1758 17.4825C17.14 17.5092 17.0957 17.5218 17.0512 17.518H17.0342C16.9333 17.5143 16.8329 17.5016 16.7342 17.48C16.4658 17.4239 16.1924 17.3951 15.9182 17.394C15.7209 17.3943 15.5239 17.4107 15.3292 17.443C14.9173 17.5469 14.5341 17.7424 14.2082 18.015C13.6667 18.4823 12.9829 18.7523 12.2682 18.781H12.1572C12.1342 18.781 12.1092 18.781 12.0852 18.781C11.3713 18.7523 10.6882 18.4826 10.1472 18.016C9.82089 17.7435 9.4374 17.548 9.0252 17.444C8.83053 17.4116 8.63354 17.3953 8.4362 17.395C8.16144 17.3978 7.88769 17.4286 7.6192 17.487C7.52062 17.5101 7.42026 17.5249 7.3192 17.531C7.27147 17.537 7.22324 17.5248 7.18412 17.4968C7.145 17.4688 7.11789 17.4271 7.1082 17.38C7.0742 17.264 7.0502 17.153 7.0262 17.045C6.9652 16.767 6.9262 16.596 6.8062 16.578C5.4472 16.368 5.0582 16.078 4.9712 15.878C4.95924 15.8504 4.95213 15.821 4.9502 15.791C4.94797 15.7532 4.95982 15.716 4.98346 15.6864C5.0071 15.6569 5.04085 15.6371 5.0782 15.631C5.75246 15.4678 6.37985 15.1509 6.91137 14.7051C7.44289 14.2592 7.86413 13.6966 8.1422 13.061V13.054C8.20256 12.9546 8.24054 12.8433 8.25349 12.7278C8.26644 12.6122 8.25406 12.4953 8.2172 12.385C8.0742 12.047 7.6062 11.899 7.2972 11.801C7.2212 11.777 7.1502 11.754 7.0972 11.732C6.4792 11.488 6.4282 11.237 6.4522 11.11C6.49643 10.997 6.57484 10.9006 6.67648 10.8343C6.77812 10.7679 6.89793 10.735 7.0192 10.74C7.07733 10.7389 7.135 10.7505 7.1882 10.774C7.41916 10.8937 7.67333 10.962 7.9332 10.974C8.09444 10.9871 8.25436 10.9361 8.3782 10.832C8.3702 10.691 8.3612 10.543 8.3512 10.39C8.20806 9.41492 8.26385 8.42094 8.5152 7.468C8.81297 6.78791 9.30448 6.2106 9.92835 5.80814C10.5522 5.40568 11.2808 5.19591 12.0232 5.205H12.2802H12.3152C13.0587 5.19539 13.7886 5.40498 14.4137 5.80762C15.0388 6.21025 15.5315 6.78809 15.8302 7.469C16.0834 8.41947 16.1422 9.41126 16.0032 10.385V10.428C15.9942 10.565 15.9862 10.699 15.9792 10.828C16.0922 10.9233 16.2364 10.9735 16.3842 10.969C16.628 10.9505 16.8659 10.8842 17.0842 10.774C17.153 10.7443 17.2273 10.7296 17.3022 10.731C17.3882 10.7307 17.4734 10.747 17.5532 10.779C17.6421 10.7998 17.7229 10.8466 17.7852 10.9133C17.8475 10.9801 17.8886 11.0639 17.9032 11.154C17.9032 11.299 17.7952 11.516 17.2542 11.73C17.1982 11.752 17.1262 11.775 17.0542 11.799C16.7442 11.899 16.2772 12.046 16.1342 12.383C16.0975 12.4931 16.0852 12.6099 16.0981 12.7253C16.1111 12.8406 16.149 12.9518 16.2092 13.051V13.059C16.4873 13.6946 16.9085 14.2572 17.44 14.7031C17.9715 15.1489 18.5989 15.4658 19.2732 15.629C19.3104 15.6351 19.344 15.6547 19.3676 15.684C19.3912 15.7134 19.4032 15.7504 19.4012 15.788C19.3995 15.8183 19.3924 15.8481 19.3802 15.876L19.3822 15.875Z" fill="#939598"/>
</g>
<defs>
<clipPath id="clip0_66_53475">
<rect width="24" height="24" fill="white" transform="translate(0.19519)"/>
</clipPath>
</defs>
</svg>
