<svg width="25" height="24" viewBox="0 0 25 24" fill="none" xmlns="http://www.w3.org/2000/svg">
<g clip-path="url(#clip0_66_53477)">
<path d="M12.1952 0C9.82182 0 7.50174 0.703788 5.52835 2.02236C3.55496 3.34094 2.01689 5.21509 1.10864 7.4078C0.20039 9.60051 -0.0372502 12.0133 0.425772 14.3411C0.888795 16.6689 2.03168 18.8071 3.70991 20.4853C5.38814 22.1635 7.52634 23.3064 9.85411 23.7694C12.1819 24.2324 14.5947 23.9948 16.7874 23.0866C18.9801 22.1783 20.8543 20.6402 22.1728 18.6668C23.4914 16.6935 24.1952 14.3734 24.1952 12C24.1915 8.81854 22.926 5.76845 20.6764 3.51881C18.4268 1.26918 15.3767 0.00370522 12.1952 0ZM15.1792 12.422H13.2272V19.381H10.3342V12.422H8.9592V9.963H10.3342V8.372C10.303 7.98061 10.3571 7.58712 10.4928 7.21869C10.6285 6.85026 10.8426 6.51567 11.1202 6.23804C11.3979 5.96041 11.7325 5.74635 12.1009 5.61064C12.4693 5.47493 12.8628 5.4208 13.2542 5.452L15.3982 5.46V7.848H13.8412C13.7545 7.84363 13.668 7.85845 13.5877 7.89141C13.5075 7.92437 13.4355 7.97465 13.3769 8.03866C13.3184 8.10267 13.2747 8.17883 13.249 8.26169C13.2232 8.34456 13.2162 8.43208 13.2282 8.518V9.964H15.4282L15.1792 12.422Z" fill="#939598"/>
</g>
<defs>
<clipPath id="clip0_66_53477">
<rect width="24" height="24" fill="white" transform="translate(0.19519)"/>
</clipPath>
</defs>
</svg>
