<svg width="25" height="24" viewBox="0 0 25 24" fill="none" xmlns="http://www.w3.org/2000/svg">
<g clip-path="url(#clip0_66_53481)">
<path d="M14.5051 11.9999C14.5051 12.4568 14.3697 12.9034 14.1158 13.2833C13.862 13.6632 13.5012 13.9593 13.0791 14.1341C12.657 14.3089 12.1926 14.3547 11.7445 14.2655C11.2964 14.1764 10.8848 13.9564 10.5617 13.6334C10.2387 13.3103 10.0187 12.8987 9.92952 12.4506C9.84039 12.0025 9.88613 11.538 10.061 11.1159C10.2358 10.6938 10.5319 10.3331 10.9118 10.0793C11.2916 9.82543 11.7383 9.68994 12.1951 9.68994C12.4985 9.68994 12.7989 9.7497 13.0791 9.86578C13.3594 9.98187 13.614 10.152 13.8286 10.3665C14.0431 10.581 14.2132 10.8357 14.3293 11.1159C14.4454 11.3962 14.5051 11.6966 14.5051 11.9999Z" fill="#939598"/>
<path d="M17.5972 7.91284C17.4819 7.61403 17.3053 7.34266 17.0788 7.11618C16.8524 6.8897 16.581 6.71315 16.2822 6.59785C15.87 6.44534 15.4346 6.36483 14.9952 6.35985C14.2642 6.32685 14.0452 6.31885 12.1952 6.31885C10.3452 6.31885 10.1252 6.32586 9.39516 6.35886C8.95563 6.36422 8.5203 6.44506 8.10815 6.59785C7.8095 6.71342 7.53827 6.89007 7.31183 7.11652C7.08539 7.34296 6.90873 7.61418 6.79317 7.91284C6.64067 8.32503 6.56016 8.76038 6.55516 9.19984C6.52216 9.93084 6.51416 10.1498 6.51416 11.9998C6.51416 13.8498 6.52116 14.0689 6.55516 14.7999C6.56014 15.2393 6.64065 15.6747 6.79317 16.0869C6.90846 16.3857 7.08502 16.657 7.31149 16.8835C7.53797 17.11 7.80934 17.2866 8.10815 17.4019C8.52026 17.5548 8.95562 17.6356 9.39516 17.6409C10.1262 17.6739 10.3452 17.6808 12.1952 17.6808C14.0452 17.6808 14.2652 17.6739 14.9952 17.6409C15.4347 17.6356 15.8701 17.5548 16.2822 17.4019C16.5808 17.2863 16.852 17.1096 17.0785 16.8832C17.3049 16.6567 17.4816 16.3855 17.5972 16.0869C17.7499 15.6747 17.8308 15.2394 17.8362 14.7999C17.8692 14.0689 17.8762 13.8498 17.8762 11.9998C17.8762 10.1498 17.8692 9.92984 17.8362 9.19984C17.831 8.76031 17.7501 8.32494 17.5972 7.91284ZM12.1972 15.5578C11.4935 15.5578 10.8056 15.3492 10.2204 14.9582C9.63533 14.5673 9.1793 14.0116 8.91 13.3614C8.64071 12.7113 8.57023 11.9959 8.70752 11.3057C8.84481 10.6155 9.18368 9.98156 9.68127 9.48396C10.1789 8.98637 10.8128 8.64749 11.503 8.51021C12.1932 8.37292 12.9086 8.4434 13.5587 8.71269C14.2089 8.98199 14.7646 9.43802 15.1555 10.0231C15.5465 10.6082 15.7552 11.2961 15.7552 11.9998C15.755 12.4672 15.6628 12.93 15.4839 13.3617C15.3049 13.7935 15.0426 14.1858 14.7121 14.5161C14.3815 14.8465 13.9891 15.1086 13.5572 15.2873C13.1254 15.4661 12.6625 15.558 12.1952 15.5578H12.1972ZM15.8972 9.13185C15.7326 9.13185 15.5717 9.08306 15.4349 8.99164C15.2981 8.90022 15.1915 8.77027 15.1285 8.61824C15.0655 8.46621 15.049 8.29892 15.0811 8.13753C15.1132 7.97614 15.1925 7.82789 15.3089 7.71153C15.4252 7.59518 15.5735 7.51594 15.7348 7.48384C15.8962 7.45174 16.0635 7.46822 16.2155 7.53119C16.3676 7.59416 16.4975 7.70079 16.5889 7.83762C16.6804 7.97444 16.7292 8.1353 16.7292 8.29985C16.7289 8.40919 16.7071 8.51741 16.665 8.61832C16.6228 8.71922 16.5613 8.81084 16.4837 8.88792C16.4062 8.96501 16.3142 9.02606 16.213 9.06757C16.1119 9.10908 16.0035 9.13025 15.8942 9.12985L15.8972 9.13185Z" fill="#939598"/>
<path d="M12.1952 0C9.82182 0 7.50174 0.703788 5.52835 2.02236C3.55496 3.34094 2.01689 5.21509 1.10864 7.4078C0.20039 9.60051 -0.0372502 12.0133 0.425772 14.3411C0.888795 16.6689 2.03168 18.8071 3.70991 20.4853C5.38814 22.1635 7.52634 23.3064 9.85411 23.7694C12.1819 24.2324 14.5947 23.9948 16.7874 23.0866C18.9801 22.1783 20.8543 20.6402 22.1728 18.6668C23.4914 16.6935 24.1952 14.3734 24.1952 12C24.1952 8.8174 22.9309 5.76515 20.6805 3.51472C18.43 1.26428 15.3778 0 12.1952 0ZM19.0442 14.841C19.0329 15.4128 18.9247 15.9784 18.7242 16.514C18.5472 16.9717 18.2765 17.3873 17.9295 17.7343C17.5825 18.0813 17.1669 18.352 16.7092 18.529C16.1739 18.7293 15.6086 18.8375 15.0372 18.849C14.3022 18.883 14.0672 18.891 12.1962 18.891C10.3252 18.891 10.0902 18.883 9.3552 18.849C8.78379 18.8375 8.21845 18.7293 7.6832 18.529C7.22551 18.352 6.80986 18.0813 6.46287 17.7343C6.11588 17.3873 5.84521 16.9717 5.6682 16.514C5.46776 15.9788 5.35956 15.4134 5.3482 14.842C5.3142 14.107 5.3062 13.872 5.3062 12.001C5.3062 10.13 5.3142 9.895 5.3482 9.16C5.35948 8.58825 5.46768 8.02256 5.6682 7.487C5.84503 7.02942 6.1154 6.61378 6.46202 6.26664C6.80864 5.91951 7.22388 5.64852 7.6812 5.471C8.21677 5.27056 8.78245 5.16236 9.3542 5.151C10.0892 5.117 10.3242 5.109 12.1952 5.109C14.0662 5.109 14.3012 5.117 15.0362 5.151C15.6079 5.16238 16.1736 5.27058 16.7092 5.471C17.1668 5.64807 17.5825 5.91876 17.9295 6.26574C18.2764 6.61272 18.5471 7.02835 18.7242 7.486C18.9247 8.02155 19.0329 8.58725 19.0442 9.159C19.0782 9.894 19.0852 10.129 19.0852 12C19.0852 13.871 19.0782 14.106 19.0442 14.841Z" fill="#939598"/>
</g>
<defs>
<clipPath id="clip0_66_53481">
<rect width="24" height="24" fill="white" transform="translate(0.19519)"/>
</clipPath>
</defs>
</svg>
