<svg width="25" height="24" viewBox="0 0 25 24" fill="none" xmlns="http://www.w3.org/2000/svg">
<g clip-path="url(#clip0_66_53485)">
<path d="M9.8252 15.2131L15.4042 12.0001L9.8252 8.78711V15.2131Z" fill="#939598"/>
<path d="M12.1952 0C9.82182 0 7.50174 0.703788 5.52835 2.02236C3.55496 3.34094 2.01689 5.21509 1.10864 7.4078C0.20039 9.60051 -0.0372502 12.0133 0.425772 14.3411C0.888795 16.6689 2.03168 18.8071 3.70991 20.4853C5.38814 22.1635 7.52634 23.3064 9.85411 23.7694C12.1819 24.2324 14.5947 23.9948 16.7874 23.0866C18.9801 22.1783 20.8543 20.6402 22.1728 18.6668C23.4914 16.6935 24.1952 14.3734 24.1952 12C24.1952 8.8174 22.9309 5.76515 20.6805 3.51472C18.43 1.26428 15.3778 0 12.1952 0ZM19.6952 12.012C19.7025 13.2212 19.5991 14.4286 19.3862 15.619C19.3004 15.9356 19.1332 16.2242 18.9013 16.4561C18.6694 16.688 18.3808 16.8552 18.0642 16.941C16.1165 17.1701 14.1561 17.2733 12.1952 17.25C10.2342 17.274 8.27385 17.1667 6.3272 16.929C6.01063 16.8432 5.72203 16.676 5.4901 16.4441C5.25818 16.2122 5.091 15.9236 5.0052 15.607C4.79148 14.4167 4.68771 13.2093 4.6952 12C4.68779 10.7908 4.79123 9.58337 5.0042 8.393C5.09169 8.07579 5.25936 7.78645 5.49107 7.55281C5.72278 7.31917 6.01072 7.14912 6.3272 7.059C8.27452 6.82998 10.2346 6.72676 12.1952 6.75C14.1562 6.72576 16.1166 6.833 18.0632 7.071C18.3798 7.15681 18.6684 7.32398 18.9003 7.55591C19.1322 7.78783 19.2994 8.07643 19.3852 8.393C19.6048 9.58653 19.7092 10.7985 19.6952 12.012Z" fill="#939598"/>
</g>
<defs>
<clipPath id="clip0_66_53485">
<rect width="24" height="24" fill="white" transform="translate(0.19519)"/>
</clipPath>
</defs>
</svg>
