<svg width="25" height="24" viewBox="0 0 25 24" fill="none" xmlns="http://www.w3.org/2000/svg">
<g clip-path="url(#clip0_66_53488)">
<path d="M12.1952 0C9.82182 0 7.50174 0.703788 5.52835 2.02236C3.55496 3.34094 2.01689 5.21509 1.10864 7.4078C0.20039 9.60051 -0.0372502 12.0133 0.425772 14.3411C0.888795 16.6689 2.03168 18.8071 3.70991 20.4853C5.38814 22.1635 7.52634 23.3064 9.85411 23.7694C12.1819 24.2324 14.5947 23.9948 16.7874 23.0866C18.9801 22.1783 20.8543 20.6402 22.1728 18.6668C23.4914 16.6935 24.1952 14.3734 24.1952 12C24.1952 8.8174 22.9309 5.76515 20.6805 3.51472C18.43 1.26428 15.3778 0 12.1952 0ZM17.6742 9.356C17.6795 9.474 17.6822 9.59267 17.6822 9.712C17.6894 10.7432 17.4916 11.7655 17.1003 12.7196C16.709 13.6736 16.132 14.5404 15.4028 15.2696C14.6736 15.9988 13.8068 16.5758 12.8528 16.9671C11.8987 17.3584 10.8764 17.5562 9.8452 17.549C8.34832 17.5503 6.88268 17.1209 5.6232 16.312C5.84126 16.3375 6.06064 16.3502 6.2802 16.35C7.52052 16.352 8.72546 15.9367 9.7012 15.171C9.12641 15.1602 8.56937 14.97 8.10802 14.627C7.64667 14.284 7.30409 13.8053 7.1282 13.258C7.54099 13.3378 7.9666 13.3217 8.3722 13.211C7.74879 13.0852 7.18812 12.7476 6.7853 12.2554C6.38247 11.7633 6.16232 11.147 6.1622 10.511C6.1622 10.499 6.1622 10.487 6.1622 10.476C6.54437 10.6887 6.972 10.8067 7.4092 10.82C6.82605 10.4305 6.41324 9.83347 6.25477 9.15037C6.0963 8.46726 6.20409 7.74944 6.5562 7.143C7.24779 7.99392 8.11062 8.68988 9.08864 9.1857C10.0667 9.68152 11.138 9.96611 12.2332 10.021C12.0953 9.43029 12.1561 8.81059 12.4062 8.25797C12.6564 7.70535 13.0818 7.25068 13.6166 6.96447C14.1515 6.67826 14.7658 6.57649 15.3643 6.67494C15.9629 6.77339 16.5122 7.06656 16.9272 7.509C17.544 7.38714 18.1355 7.16089 18.6762 6.84C18.4704 7.47762 18.0401 8.01883 17.4652 8.363C18.0113 8.29834 18.5446 8.15204 19.0472 7.929C18.6775 8.48218 18.2123 8.96506 17.6732 9.355L17.6742 9.356Z" fill="#939598"/>
</g>
<defs>
<clipPath id="clip0_66_53488">
<rect width="24" height="24" fill="white" transform="translate(0.19519)"/>
</clipPath>
</defs>
</svg>
